HIERARCHY
ROOT RootJoint
{
    OFFSET   0.000000   0.000000   0.000000
    CHANNELS 6 Xposition Yposition Zposition Xrotation Yrotation Zrotation
    JOINT pelvis_lowerback
    {
        OFFSET   0.000000   0.093605   0.000000
        CHANNELS 3 Xrotation Yrotation Zrotation
        JOINT lowerback_torso
        {
            OFFSET   0.000000   0.100000   0.000000
            CHANNELS 3 Xrotation Yrotation Zrotation
            JOINT torso_head
            {
                OFFSET   0.000000   0.282350   0.000000
                CHANNELS 3 Xrotation Yrotation Zrotation
                End Site
                {
                    OFFSET   0.000000   0.192650   0.000000
                }
            }
            JOINT rTorso_Clavicle
            {
                OFFSET  -0.001000   0.157500   0.000000
                CHANNELS 3 Xrotation Yrotation Zrotation
                JOINT rShoulder
                {
                    OFFSET  -0.117647   0.000000   0.000000
                    CHANNELS 3 Xrotation Yrotation Zrotation
                    JOINT rElbow
                    {
                        OFFSET  -0.245000   0.000000   0.000000
                        CHANNELS 3 Xrotation Yrotation Zrotation
                        JOINT rWrist
                        {
                            OFFSET  -0.240000   0.000000   0.000000
                            CHANNELS 3 Xrotation Yrotation Zrotation
                            End Site
                            {
                                OFFSET  -0.116353  -0.002500   0.000000
                            }
                        }
                    }
                }
            }
            JOINT lTorso_Clavicle
            {
                OFFSET   0.001000   0.157500   0.000000
                CHANNELS 3 Xrotation Yrotation Zrotation
                JOINT lShoulder
                {
                    OFFSET   0.117647   0.000000   0.000000
                    CHANNELS 3 Xrotation Yrotation Zrotation
                    JOINT lElbow
                    {
                        OFFSET   0.245000   0.000000   0.000000
                        CHANNELS 3 Xrotation Yrotation Zrotation
                        JOINT lWrist
                        {
                            OFFSET   0.240000   0.000000   0.000000
                            CHANNELS 3 Xrotation Yrotation Zrotation
                            End Site
                            {
                                OFFSET   0.116353  -0.002500   0.000000
                            }
                        }
                    }
                }
            }
        }
    }
    JOINT rHip
    {
        OFFSET  -0.100000  -0.051395   0.000000
        CHANNELS 3 Xrotation Yrotation Zrotation
        JOINT rKnee
        {
            OFFSET   0.000000  -0.410000   0.000000
            CHANNELS 3 Xrotation Yrotation Zrotation
            JOINT rAnkle
            {
                OFFSET   0.000000  -0.390000   0.000000
                CHANNELS 3 Xrotation Yrotation Zrotation
                JOINT rToeJoint
                {
                    OFFSET   0.000000  -0.050000   0.130000
                    CHANNELS 3 Xrotation Yrotation Zrotation
                    End Site
                    {
                        OFFSET  -0.010000   0.002000   0.060000
                    }
                }
            }
        }
    }
    JOINT lHip
    {
        OFFSET   0.100000  -0.051395   0.000000
        CHANNELS 3 Xrotation Yrotation Zrotation
        JOINT lKnee
        {
            OFFSET   0.000000  -0.410000   0.000000
            CHANNELS 3 Xrotation Yrotation Zrotation
            JOINT lAnkle
            {
                OFFSET   0.000000  -0.390000   0.000000
                CHANNELS 3 Xrotation Yrotation Zrotation
                JOINT lToeJoint
                {
                    OFFSET   0.000000  -0.050000   0.130000
                    CHANNELS 3 Xrotation Yrotation Zrotation
                    End Site
                    {
                        OFFSET   0.010000   0.002000   0.060000
                    }
                }
            }
        }
    }
}
MOTION
Frames: 15
Frame Time:   0.008333
 -2.321238   0.872246   4.215819  10.057123  -4.366236   1.459870  -0.241884   9.668883  -5.406126   7.029305   3.962567  -0.106597 -13.378884  -8.021444   0.602058   0.618615  -0.434759   4.620936   3.275988   7.926572  46.110537   0.011347  85.431582  -0.017945  -1.209006   4.316462   0.486104  12.246714  13.439234  -3.313033  37.163474   9.985480 -45.030775   0.014521 -63.482420  -0.013550  -1.000977  -6.920675   2.986253   7.673225  -1.295578  -8.637649  42.705675   0.059255   0.008837   5.599463   0.784332   5.644978 -13.668689   0.032863  -0.024817 -47.987357   5.482624   1.080413  68.169169  -0.019735  -0.053019 -31.894083   3.881682   4.088896  -2.945766  -0.000177  -0.001529
 -2.319387   0.872747   4.229513   9.649388  -3.498486   1.048707  -0.100512   9.142942  -5.172250   7.018319   3.694761  -0.121852 -13.286436  -8.047879   0.852747   0.817981  -0.493700   4.770491   4.173581   7.627994  45.973557  -0.060633  82.990872   0.058140  -1.161265   5.525806   0.528722  12.082273  13.457152  -3.675176  35.961935   9.913118 -44.780466   0.007439 -64.101283  -0.018766  -0.930751  -6.658756   2.980748   6.907935  -1.819345  -8.702601  46.664030   0.063628  -0.006601   6.124694   0.434715   5.540073 -12.236838   0.034813  -0.031082 -45.352670   5.007872   0.844841  65.910614  -0.017752  -0.052248 -33.585556   3.818309   4.200112  -2.903875  -0.000184  -0.001019
 -2.317429   0.872562   4.243378   9.248603  -2.572412   0.659902  -0.011492   8.543385  -4.921699   6.993555   3.332276  -0.117476 -13.194101  -8.060936   1.092598   1.076265  -0.572444   4.954251   5.082814   7.264254  45.825167  -0.065487  80.529350   0.064897  -1.108961   5.766194   0.506824  11.796683  13.350880  -4.050775  34.712924   9.748966 -44.505002   0.000937 -64.714046  -0.023056  -0.861877  -6.514639   3.139330   6.022692  -2.311119  -8.811318  50.644895   0.067617  -0.018877   6.604301   0.101793   5.444575 -11.005752   0.035284  -0.034162 -42.594162   4.530624   0.619350  63.977754  -0.016285  -0.050803 -35.163991   3.756662   4.303597  -2.898794  -0.000156  -0.000790
 -2.315431   0.871604   4.257342   8.890211  -1.603867   0.287848   0.019495   7.870150  -4.670036   6.932411   2.874808  -0.099707 -13.110246  -8.072075   1.322036   1.364399  -0.687828   5.141686   5.972120   6.885725  45.692837  -0.048031  78.193714   0.047711  -1.056048   5.655146   0.486771  11.457833  13.169740  -4.416346  33.481687   9.533182 -44.229611  -0.004514 -65.314169  -0.025975  -0.788588  -6.527290   3.347475   5.026643  -2.740654  -8.942944  54.595777   0.071561  -0.027765   7.049736  -0.209682   5.357363  -9.887689   0.035199  -0.035208 -39.797143   4.067414   0.439765  62.275876  -0.015344  -0.049329 -36.633225   3.697582   4.398779  -2.892385  -0.000136  -0.000599
 -2.313418   0.869813   4.271353   8.573553  -0.604697  -0.068464   0.006307   7.138666  -4.427290   6.840794   2.342147  -0.075773 -13.035670  -8.083272   1.539864   1.663086  -0.832959   5.318594   6.826485   6.504403  45.573423  -0.026027  76.000703   0.025164  -1.004747   5.434723   0.457992  11.091829  12.939176  -4.758236  32.288434   9.288021 -43.956977  -0.008868 -65.894943  -0.027636  -0.711280  -6.657602   3.577148   3.947723  -3.111372  -9.095139  58.509414   0.075464  -0.034271   7.463025  -0.500903   5.277559  -8.871453   0.034720  -0.034939 -37.002220   3.619600   0.314443  60.758559  -0.014702  -0.047801 -38.001403   3.641203   4.486448  -2.883242  -0.000127  -0.000430
 -2.311402   0.867151   4.285368   8.294550   0.417716  -0.409615  -0.038138   6.366768  -4.199640   6.727542   1.754731  -0.050541 -12.969595  -8.094839   1.745430   1.962166  -0.999988   5.478095   7.639885   6.125473  45.462651  -0.006012  73.947617   0.004304  -0.955991   5.180273   0.408788  10.712407  12.675109  -5.069898  31.141675   9.026616 -43.687594  -0.012189 -66.452635  -0.028284  -0.630516  -6.871038   3.824680   2.811918  -3.428971  -9.266306  62.388519   0.079328  -0.039192   7.846451  -0.773202   5.204433  -7.948044   0.033949  -0.033860 -34.239871   3.187321   0.243144  59.398035  -0.014225  -0.046138 -39.275942   3.587504   4.567406  -2.872338  -0.000126  -0.000284
 -2.309387   0.863595   4.299354   8.049693   1.458868  -0.736160  -0.103376   5.570751  -3.990643   6.600358   1.130523  -0.027121 -12.911089  -8.106704   1.938568   2.256341  -1.182189   5.618191   8.410553   5.752294  45.358242   0.009867  72.027477  -0.012437  -0.910104   4.915941   0.335316  10.328182  12.389023  -5.349753  30.045474   8.757185 -43.422696  -0.014578 -66.985462  -0.028171  -0.546785  -7.143585   4.088817   1.641842  -3.698920  -9.453987  66.237684   0.083150  -0.043085   8.202254  -1.027824   5.137345  -7.109059   0.032964  -0.032312 -31.534181   2.771442   0.221741  58.174078  -0.013850  -0.044304 -40.463635   3.536390   4.642323  -2.860904  -0.000129  -0.000162
 -2.307333   0.859633   4.312116   7.998598   2.745374  -1.063284   0.052032   4.738982  -3.719337   6.301593   0.476761  -0.131762 -13.004577  -8.036786   2.170115   2.427354  -1.429322   5.622454   9.212962   5.209233  45.204211   0.024287  69.428500  -0.022472  -0.779245   5.231215   0.332316   9.907266  12.032179  -5.550470  28.141723   8.415085 -43.035756  -0.036124 -68.165732  -0.049915  -0.489189  -6.638337   4.066472  -0.150320  -4.374394  -9.695387  70.277713   0.078785  -0.051165   8.190581  -1.290679   5.277418  -6.319210   0.028723  -0.031563 -28.855424   2.052013   0.078796  56.157418  -0.014484  -0.046068 -41.338738   3.342223   4.742346  -2.970575   0.000150  -0.000549
 -2.305433   0.854925   4.324325   7.992954   4.137039  -1.396970   0.296766   3.857147  -3.458472   6.034233  -0.258091  -0.243504 -13.088635  -7.959079   2.389601   2.603648  -1.677677   5.554837   9.981591   4.646329  45.004898   0.033574  66.931897  -0.025759  -0.646726   5.161736   0.260046   9.355517  11.545489  -5.699403  26.219788   7.978351 -42.628480  -0.054077 -69.360118  -0.066439  -0.412496  -6.563201   4.256852  -2.166103  -5.033875  -9.896496  74.274596   0.075599  -0.053351   8.172629  -1.534350   5.410835  -5.643118   0.025132  -0.029255 -26.203707   1.339886  -0.004636  54.094586  -0.016343  -0.049374 -42.155015   3.156412   4.831854  -3.035916   0.000277  -0.000758
 -2.303659   0.849340   4.336244   7.999333   5.581542  -1.714023   0.592396   2.925228  -3.232335   5.817739  -1.058614  -0.360387 -13.154795  -7.884191   2.597346   2.780628  -1.931435   5.451345  10.709333   4.092621  44.797370   0.041023  64.586453  -0.027885  -0.517392   4.954895   0.158944   8.760904  10.991999  -5.809514  24.357187   7.502330 -42.220131  -0.066239 -70.511736  -0.076070  -0.320239  -6.729787   4.541135  -4.290605  -5.624522 -10.094297  78.205187   0.074758  -0.051387   8.152100  -1.761234   5.535477  -5.042231   0.022359  -0.026291 -23.586363   0.667240  -0.031127  52.159181  -0.018338  -0.052489 -42.916183   2.982109   4.912745  -3.090758   0.000365  -0.000913
 -2.301977   0.842824   4.348010   8.009173   7.048090  -2.009324   0.916209   1.962244  -3.039689   5.646366  -1.900040  -0.480883 -13.207665  -7.814373   2.790638   2.960136  -2.194245   5.330161  11.399452   3.551497  44.594033   0.046833  62.389744  -0.029639  -0.393298   4.700324   0.036233   8.160078  10.412346  -5.885613  22.580708   7.014626 -41.822018  -0.073265 -71.606899  -0.080286  -0.218678  -7.016993   4.867821  -6.468697  -6.140729 -10.305407  82.075581   0.075932  -0.047276   8.129731  -1.972981   5.651501  -4.506502   0.020211  -0.023170 -21.011771   0.034057  -0.006406  50.384009  -0.019939  -0.054618 -43.625549   2.818975   4.986353  -3.141646   0.000433  -0.001036
 -2.300361   0.835355   4.359702   8.020638   8.518482  -2.283972   1.252958   0.987994  -2.873850   5.511609  -2.760508  -0.602298 -13.251204  -7.749885   2.968987   3.143771  -2.466822   5.200401  12.055890   3.023468  44.400020   0.050826  60.333000  -0.030825  -0.275078   4.420894  -0.103956   7.571184   9.830772  -5.934721  20.900611   6.529627 -41.442050  -0.076268 -72.641736  -0.080769  -0.111653  -7.366046   5.213562  -8.662425  -6.587517 -10.532458  85.896476   0.078583  -0.042320   8.106126  -2.170771   5.759437  -4.028632   0.018501  -0.020164 -18.489639  -0.561835   0.064289  48.765380  -0.021041  -0.055565 -44.286567   2.666356   5.053631  -3.190175   0.000486  -0.001131
 -2.298706   0.829170   4.372025   7.748842   9.756589  -2.089874   1.767760   0.095439  -3.086637   5.498655  -3.569122  -0.868622 -13.293756  -7.688113   3.125987   3.310382  -2.683660   5.255100  12.661190   2.554270  44.291732   0.050245  58.388369  -0.031664  -0.156703   4.036799  -0.211159   6.984609   9.236710  -6.048864  19.304408   6.051422 -41.078485  -0.071343 -73.567413  -0.074565  -0.015767  -7.543369   5.626992 -10.674512  -6.812589 -11.078322  89.571321   0.076648  -0.035532   8.083343  -2.362178   5.854832  -3.579336   0.016601  -0.017230 -16.485639  -1.173750  -0.074147  48.875863  -0.016614  -0.043900 -44.928257   2.471359   5.198933  -3.123076   0.000079  -0.000784
 -2.297404   0.824081   4.384114   7.588232  10.509108  -2.115971   2.404306  -0.544363  -3.093038   5.205519  -4.015540  -1.041147 -13.271318  -7.329466   3.111899   3.599077  -3.086530   5.017687  13.578014   2.130546  44.157983   0.043102  57.234555  -0.024144  -0.120289   3.523640  -0.097295   6.300360   8.764939  -5.908900  16.941491   5.555100 -40.899972  -0.152045 -75.715430  -0.157595  -0.160361  -6.494876   5.173632 -13.402763  -6.661028 -11.266323  93.356579   0.069685  -0.025195   7.781389  -2.583268   6.090790  -3.238524   0.013593  -0.014056 -14.467699  -1.663290   0.141357  48.350750  -0.012667  -0.037142 -43.253750   2.466380   5.155838  -3.673944   0.001943  -0.000479
 -2.296277   0.819540   4.396543   7.414831  11.117951  -2.223660   3.021780  -1.200701  -3.008899   4.901869  -4.480430  -1.156150 -13.230508  -6.970003   3.098323   3.876293  -3.483008   4.673150  14.443553   1.720102  43.990279   0.039858  56.199230  -0.021346  -0.074569   3.272853   0.128115   5.523381   8.226083  -5.669741  14.602443   5.005701 -40.697363  -0.243844 -77.857694  -0.245994  -0.255051  -6.108625   5.019770 -16.449635  -6.516430 -11.338067  97.082064   0.058853  -0.014633   7.489520  -2.788719   6.310976  -2.986462   0.010724  -0.011175 -12.310265  -2.166944   0.477708  47.498788  -0.008721  -0.031960 -41.640846   2.461589   5.114964  -4.000278   0.002519   0.000038
